<?xml version="1.0" encoding="utf-8"?>
<!-- Generator: Adobe Illustrator 16.0.3, SVG Export Plug-In . SVG Version: 6.00 Build 0)  -->
<svg version="1.1" id="Ancestry_Magazine_logo" xmlns="http://www.w3.org/2000/svg" xmlns:xlink="http://www.w3.org/1999/xlink"
	 x="0px" y="0px" width="820px" height="227.06px" viewBox="0 0 820 227.06" enable-background="new 0 0 820 227.06"
	 xml:space="preserve">
<path fill="#3EAB37" d="M32.652,126.485c0-12.966,9.415-31.192,37.428-32.617c0.16,0.013,0.351,0.021,0.604,0.021
	c3.829,0,5.706,1.168,5.706,4.783v29.733c-0.073,0.253,1.13,7.691-5.228,10.688c-7.476,3.408-14.339,5.157-19.98,5.157
	C39.856,144.25,32.652,137.543,32.652,126.485 M121.081,150.529c0-1.438-1.474-1.417-1.474-1.417
	c-15.443,1.55-21.609-0.761-21.609-8.228V71.698c0-23.176-9.777-35.265-32.415-35.265c-24.445,0-51.203,13.639-51.203,29.842
	c0,6.698,4.627,12.604,12.349,12.604c7.206,0,12.088-5.905,12.088-12.338c0-4.234-1.748-8.868-5.907-13.036
	c-0.914-1.45-0.179-2.664,3.046-3.562c0.129-0.037,0.185-0.079,0.301-0.1c4.819-1.38,9.496-2.078,13.635-2.078
	c15.434,0,26.498,9.001,26.498,26.247v2.917c0,0.037-0.006,0.054-0.006,0.092c0,3.512-1.263,8.161-5.924,8.988
	C34.782,91.637,10,112.257,10,134.215c0,15.671,10.813,25.47,27.535,25.47c11.983,0,23.394-5.781,33.899-14.952
	c3.21-3.208,5.934-0.391,7.648,5.377c2.321,6.729,6.954,9.575,14.023,9.575c6.252,0,14.096-2.012,20.075-4.339
	c2.865-1.109,5.415-2.302,7.007-3.391C120.801,151.481,121.081,151.148,121.081,150.529 M240.417,151.644
	c-2.978-0.532-16.97-2.34-16.97-19.599v-11.473V71.37c0-18.272-8.5-35.747-31.646-35.747c-12.342,0-24.158,4.621-37.461,15.733
	c-6.036,3.149-7.245-1.887-7.268-7.775c0.114-3.728,0.224-7.061,0.224-7.451c0-0.876-1.047-0.772-1.047-0.772l-36.019,9.259
	c0,0-1.974,1.82,0,2.314c1.979,0.511,16.73,2.19,16.73,10.813v74.514c0,14.928-5.354,18.385-10.061,19.021
	c-3.65,0.478-4.956,0.366-6.921,0.366c-3.674,0.22,0,3.357,0,3.357h54.804c0,0,2.851-3.067,0-3.357
	c-2.849-0.283-15.947-0.865-15.947-19.387V66.956l0.022,0.021c0-3.711-0.126-5.066,3.823-7.405c0.119-0.079,0.191-0.133,0.308-0.212
	c8.336-4.185,15.357-5.723,24.657-5.723c17.239,0,24.184,9.255,24.184,28.819v39.12v11.461c0,16.062-12.885,18.16-16.211,18.605
	c-3.331,0.469,0,3.357,0,3.357h54.798C240.417,155.001,243.39,152.188,240.417,151.644 M338.075,135.931
	c0-1.063-0.881-1.949-1.951-1.949c-0.197,0-0.382,0.059-0.561,0.112c0-0.012-0.009-0.021-0.013-0.033
	c-0.055,0.021-0.102,0.042-0.152,0.071c-0.03,0.008-0.052,0.028-0.078,0.045c-11.676,5.561-22.925,8.98-35.125,8.98
	c-26.249,0-40.899-21.363-40.899-48.633c0-36.781,20.325-51.957,41.923-51.957c2.479,0,4.451,0.092,6.348,0.304
	c0.064,0.008,0.098,0.024,0.167,0.033c3.33,0.378,3.449,1.857,2.086,3.59c0,0,0.022,0.033,0.061,0.092
	c-2.141,3.516-3.501,7.85-3.501,12.184c0,7.729,5.39,15.442,14.66,15.442c7.977,0,13.891-6.69,13.891-15.442
	c0-12.861-14.156-23.146-35.506-23.146c-36.791,0-63.291,28.046-63.291,63.797c0,35.775,23.418,59.707,56.593,59.707
	c16.229,0,32.422-8.764,44.462-21.579c0-0.005-0.008-0.013-0.008-0.013C337.703,137.194,338.075,136.608,338.075,135.931
	 M402.757,41.973c8.652,0,12.978,6.491,12.978,15.077c0,15.102-14.232,35.559-47.73,33.706c-0.32-0.042-0.698-0.059-1.102-0.083
	c-0.087-0.005-0.175-0.013-0.272-0.021c-2.854-0.091-3.488-1.172-3.278-2.967C368.986,64.646,383.475,41.973,402.757,41.973
	 M365.778,96.96c51.502,0.839,70.522-20.329,70.522-37.305c0-12.479-11.1-23.915-30.57-23.915
	c-41.933,0-68.186,42.645-68.186,78.037c0,7.33,1.349,14.2,3.878,20.283c0.49,1.185,1.051,2.373,1.646,3.487
	c6.854,13.106,19.965,21.733,38.584,21.733c16.496,0,35.313-11.083,44.098-26.529c2.468-4.33-1.891-2.336-1.891-2.336
	c-8.125,8.852-21.103,14.304-31.924,14.304c-22.313,0-33.627-17.142-30.589-45.221C361.804,97.978,362.878,96.96,365.778,96.96
	 M485.249,84.763c-14.66-6.179-28.565-11.581-28.565-25.481c0-10.801,7.729-17.487,19.307-17.487
	c11.063,0,20.646,7.917,30.465,27.494c0.083,0.365,0.254,0.702,0.495,0.972c0.058,0.121,0.116,0.241,0.179,0.35l0.104-0.029
	c0.474,0.428,1.097,0.715,1.783,0.715c1.233,0,2.202-0.818,2.563-1.92l0.179-0.054l-0.021-0.74l-0.607-22.568l-0.004,0.028
	c0-0.083,0-0.166,0.004-0.27l-0.074-2.855c-0.237-1.504-1.039-2.867-3.603-3.772c-0.063-0.013-0.092-0.038-0.146-0.055
	c-7.348-2.053-18.202-3.731-26.696-3.731c-24.688,0-40.388,15.708-40.388,36.021c0,20.063,16.46,27.539,32.164,34.229
	c14.403,5.926,28.038,11.312,28.038,25.216c0,13.622-8.743,21.605-22.378,21.605c-13.893,0-25.735-9.782-34.222-33.448l-0.033,0.008
	c-0.212-1.284-1.284-2.294-2.63-2.294c-1.501,0-2.714,1.21-2.714,2.706c0,0.033,0.008,0.062,0.008,0.091h-0.033v30.303
	c0.225,1.188,0.848,2.269,2.443,3.108c10.859,4.359,20.837,5.951,32.813,5.951c25.208,0,44.507-15.181,44.507-39.101
	C518.187,98.917,501.203,91.441,485.249,84.763 M593.793,142.646c-5.397,0.258-9.154,0.52-13.256,0.52
	c-9.018,0-15.446-1.039-19.045-3.092c-5.398-3.595-6.172-9.524-6.172-18.788V53.903c0.254-1.408,0.952-2.298,2.635-2.589h28.063
	c1.865,0,3.407-1.537,3.407-3.42v-4.242c0-1.866-1.542-3.399-3.407-3.399h-27.935c-1.795-0.287-2.51-1.625-2.764-3.188V12.314
	h-0.016c0-1.288-1.044-2.314-2.319-2.314c-0.873,0-1.6,0.49-1.99,1.185l-0.042-0.013c0,0-0.017,0.071-0.037,0.129
	c-0.088,0.187-0.133,0.374-0.171,0.59c-0.889,2.946-4.828,14.652-13.555,23.371c-10.049,10.044-21.04,12.404-21.04,12.404
	l0.008,0.042c-0.776,0.22-1.354,0.897-1.354,1.745c0,1.03,0.835,1.854,1.85,1.854c0.091,0,13.464,0.008,13.464,0.008
	c4.109,0,3.595,4.858,3.595,4.858v73.878c0,18.247,5.639,27.003,25.212,27.003c12.089,0,28.856-6.475,36.274-11.844
	C598.194,143.045,593.793,142.646,593.793,142.646 M683.367,44.051c-0.711-1.425-1.621-2.792-2.83-3.943
	c-2.872-2.722-7.127-4.484-12.866-4.484c-8.734,0-18.438,5.752-26.238,15.185c-0.341,0.333-0.702,0.702-1.126,1.172
	c-6.641,7.197-6.915,0.831-6.915-4.159c0,0,0.063-8.931,0.063-10.219c0-2.959-2.485-1.833-2.485-1.833l-34.565,8.848
	c0,0-0.923,0.153-0.923,1.213s0.923,1.102,0.923,1.102s16.726,0.715,16.726,10.813c0,10.09,0.066,61.69,0.066,76.634
	s-13.348,16.821-16.742,17.274c-3.375,0.461,0,3.35,0,3.35h55.813c0,0,3.013-2.813,0-3.35c-3.017-0.523-17.259-4.608-17.259-18.501
	V67.525c5.822-12.537,19.52-16.103,19.52-16.103c0.241-0.063,0.486-0.12,0.739-0.179c0.204-0.042,0.411-0.063,0.599-0.096
	c2.414-0.212,2.556,2.224,2.651,2.307c1.97,6.698,7.114,10.983,13.269,10.983c7.717,0,13.123-5.664,13.123-13.893
	C684.908,48.272,684.364,46.05,683.367,44.051 M808.828,38.665h-43.999c0,0-1.26,0.374-1.26,1.671c0,1.242,1.26,1.679,1.26,1.679
	s5.023,2.431,8.174,3.757c7.663,3.444,5.415,10.352,5.415,10.352l-22.59,57.509c-0.15,0.37-0.346,0.823-0.569,1.371
	c-3.47,8.827-6.104,3.404-8.22-1.815c-6.845-18.015-18.26-48.583-20.458-54.301c-4.754-12.393,13.294-16.938,13.294-16.938
	c0.855-0.087,1.533-0.744,1.533-1.612c0-1.55-1.533-1.671-1.533-1.671l-58.661,0.075c-0.723,0.175-1.3,0.844-1.3,1.629
	c0,0.794,0.577,1.417,1.3,1.6v0.046c0,0,0.138,0,0.313,0.017c0.017,0,0.045,0.009,0.074,0.009c0.009,0,0.017,0,0.029,0
	c2.269,0.137,13.439,1.097,17.993,11.863c2.972,7.023,37.966,92.545,38.119,92.936c3.25,7.729,0.308,13.622,0.308,13.622
	l-4.658,10.618c-2.797,6.146-5.598,12.583-8.776,17.457c-2.24,3.208-4.43,3.35-5.863,2.058c-4.584-5.693-8.997-9.404-15.929-9.404
	c-7.214,0-13.119,5.406-13.119,12.367c0,6.952,5.132,14.407,17.233,14.407c14.407,0,25.216-10.298,33.697-31.408l47.881-119.564
	c0.017-0.041,0.033-0.046,0.054-0.1c1.725-4.102,4.11-7.106,7.597-9.113l12.662-5.764c0,0,1.172-0.391,1.172-1.679
	C810,38.836,808.828,38.665,808.828,38.665"/>
<path fill="#89BCE6" d="M217.964,203.077c-0.234-4.33-0.513-9.542-0.467-13.415h-0.138c-1.06,3.641-2.352,7.563-3.925,11.798
	l-5.489,15.094h-3.044l-5.032-14.811c-1.474-4.38-2.723-8.395-3.6-12.081h-0.095c-0.086,3.873-0.32,9.085-0.593,13.739
	l-0.833,13.343h-3.831l2.167-31.092h5.121l5.313,15.022c1.286,3.853,2.354,7.252,3.142,10.484h0.129
	c0.785-3.142,1.893-6.562,3.28-10.484l5.535-15.022h5.128l1.935,31.092h-3.921L217.964,203.077z M272.561,206.954l-3.235,9.79
	h-4.147l10.567-31.092h4.84l10.615,31.092h-4.291l-3.32-9.79H272.561z M282.76,203.82l-3.046-8.951
	c-0.698-2.036-1.159-3.873-1.616-5.672h-0.092c-0.465,1.849-0.975,3.728-1.57,5.627l-3.044,8.996H282.76z M357.066,215.36
	c-1.804,0.648-5.356,1.696-9.559,1.696c-4.703,0-8.579-1.193-11.623-4.094c-2.676-2.589-4.338-6.749-4.338-11.577
	c0.046-9.296,6.41-16.07,16.843-16.07c3.595,0,6.407,0.786,7.754,1.43l-0.977,3.274c-1.654-0.739-3.733-1.334-6.869-1.334
	c-7.571,0-12.509,4.709-12.509,12.513c0,7.892,4.755,12.55,12,12.55c2.633,0,4.43-0.378,5.354-0.835v-9.271h-6.321v-3.225h10.244
	V215.36z M406.962,206.954l-3.232,9.79h-4.149l10.569-31.092h4.837l10.613,31.092h-4.288l-3.32-9.79H406.962z M417.164,203.82
	l-3.05-8.951c-0.698-2.036-1.155-3.873-1.617-5.672h-0.087c-0.465,1.849-0.977,3.728-1.57,5.627l-3.044,8.996H417.164z
	 M466.782,214.389l17.254-25.245v-0.142h-15.779v-3.35h20.994v2.439l-17.167,25.133v0.146h17.4v3.374h-22.702V214.389z
	 M537.111,185.652v31.092h-4.019v-31.092H537.111z M582.877,216.744v-31.092h4.375l9.961,15.733
	c2.307,3.636,4.11,6.915,5.586,10.102l0.1-0.05c-0.366-4.155-0.466-7.933-0.466-12.786v-12.999h3.786v31.092h-4.064l-9.865-15.787
	c-2.186-3.453-4.256-7.015-5.822-10.389l-0.137,0.046c0.229,3.927,0.328,7.676,0.328,12.841v13.289H582.877z M668.021,202.167
	h-12.102v11.203h13.485v3.374h-17.495v-31.092h16.801v3.35h-12.791v9.836h12.102V202.167z"/>
</svg>

