<svg xmlns="http://www.w3.org/2000/svg" width="71.466" height="21.822" viewBox="0 0 71.466 21.822">
    <defs>
        <style>
            .cls-1{fill:#58595b}
        </style>
    </defs>
    <g id="BYU-Logo_Black">
        <path id="Path_1094" d="M8.109 4.115h3.71c2.027 0 2.443.385 2.443 2.351 0 1.277-.071 2.351-2.443 2.351h-3.71zM1.743 20.089c0 .679-.831 1.328-1.743 1.378v.091h13.6c5.747 0 8.109-2.453 8.109-6.274a4.956 4.956 0 0 0-3.689-5.24 5.483 5.483 0 0 0 3.041-4.7C21.072 1.014 18.883 0 13.43 0H0v.091C.912.142 1.743.78 1.743 1.47zm6.365-7.926h3.264c1.8 0 3.223 0 3.223 2.635 0 1.956-1.115 2.645-3.2 2.645H8.109z" class="cls-1" data-name="Path 1094"/>
        <path id="Path_1095" d="M37.008.15h9.173v.122a2.149 2.149 0 0 0-1.48 1.1l-7.348 11.741v7.217c0 .618.3 1.014 1.257 1.074v.142h-9.69V21.4c.943-.081 1.257-.4 1.257-1.074v-7.263L23.244 2.025C22.454.758 21.937.292 21.43.292V.15h9.355v.142c-.456 0-1.014.172-.953.831s2.757 4.956 4 6.983c.416-.821 3.973-6.233 4-6.983a.734.734 0 0 0-.831-.851z" class="cls-1" data-name="Path 1095" transform="translate(.291 .002)"/>
        <path id="Path_1096" d="M48.022 1.6c0-1.014-.882-1.267-1.612-1.318V.14h9.29V.3a1.226 1.226 0 0 0-1.014 1.3v10.875c0 2.473 1.318 4.389 3.943 4.389s3.933-1.916 3.933-4.389V1.6A1.226 1.226 0 0 0 61.553.312V.14h9.284v.172c-.72 0-1.591.334-1.591 1.287v10.694c0 5.149-2.625 9.528-10.571 9.528s-10.653-4.379-10.653-9.528z" class="cls-1" data-name="Path 1096" transform="translate(.63 .002)"/>
    </g>
</svg>

